<svg fill="none" height="79" viewBox="0 0 56 79" width="56" xmlns="http://www.w3.org/2000/svg" xmlns:xlink="http://www.w3.org/1999/xlink"><mask id="a" height="11" maskUnits="userSpaceOnUse" width="10" x="23" y="0"><path d="m23.6184 0h8.8492v10.3241h-8.8492z" fill="#fff"/></mask><mask id="b" height="11" maskUnits="userSpaceOnUse" width="9" x="33" y="0"><path d="m33.1396 0h8.8289v10.3261h-8.8289z" fill="#fff"/></mask><mask id="c" height="11" maskUnits="userSpaceOnUse" width="10" x="12" y="0"><path d="m12.9388 0h8.8452v10.2179h-8.8431z" fill="#fff"/></mask><mask id="d" height="64" maskUnits="userSpaceOnUse" width="56" x="0" y="15"><path d="m0 15.2411h55.8572v63.346h-55.8572z" fill="#fff"/></mask><g mask="url(#a)"><path clip-rule="evenodd" d="m32.4166-.00009347c.0163.07762487.047.15524947.047.23287447.004.855919.002 1.711829 0 2.567749 0 .04903-.0123.09805-.0246.18385-.5556.02655-1.1112.00817-1.6648.01021-.5679.00409-1.1378 0-1.7057 0h-1.6935v.55972h5.0681v6.76969h-8.8043v-3.08047h5.0763v-.56584h-5.0701c-.0123-.11644-.0266-.20224-.0266-.28599v-6.105807c0-.09601.0409-.1920196.0613-.28802923h8.7369z" fill="#fff" fill-rule="evenodd"/></g><g mask="url(#b)"><path clip-rule="evenodd" d="m41.946 0c.0082.249217.0204.502519.0204.753778.0041.623042.0021 1.248122.0021 1.873212v.36565h-5.0947v.56789h5.0742v6.76557h-8.7859v-3.0743c.8376-.03269 1.6751-.01022 2.5126-.0143.8437-.00409 1.6853 0 2.5535 0v-.56993h-5.062c-.0123-.08784-.0266-.14504-.0266-.20428v-6.283527c0-.061283.0041-.120523.0041-.179763h8.8043z" fill="#fff" fill-rule="evenodd"/></g><g mask="url(#c)"><path clip-rule="evenodd" d="m21.7126 0c.0205.0735393.0613.149121.0634.224704.0041 1.017296.002 2.034586 0 3.051886 0 .03881-.0123.07762-.0286.15729-.5516.0143-1.1052.00613-1.6587.00613h-3.3726c-.0695.22879-.0899 2.86395-.0246 3.32765h5.0171c.0817.24105.1041 3.01103.0388 3.39504-.2349.0593-8.2119.0817-8.7839.0205-.0061-.0879-.0225-.18389-.0225-.2799v-9.6071c0-.098052.0246-.1981476.0368-.2962z" fill="#fff" fill-rule="evenodd"/></g><g mask="url(#d)"><path clip-rule="evenodd" d="m45.4453 26.8703h-.5475l-28.3678.0123h-5.6666c-.094 0-.19-.0041-.2839.0041-.0695.0041-.1369.0286-.2248.049l.6333 6.9658c.2043.0061.3718.0184.5372.0184l25.6755.0122c.094 0 .19-.002.286.0021.0592.0041.1205.0204.1736.0265.0654.284-.4882 6.7207-.6128 7.0619h-.3575l-9.4355.0122h-15.1021c-.1634 0-.331.0164-.5393.0266l.6292 7.0107c.2124.0082.3881.0204.5638.0204l23.2057.0164c.096 0 .19 0 .286.0041.0511.0041.1001.0184.1736.0327 0 .0817.0062.1532 0 .2247-.1144 1.2583-.2349 2.5187-.3472 3.7791l-.4004 4.6023c-.0327.3697-.0368.3718-.3881.4658-2.3901.6495-4.7801 1.2951-7.1701 1.9467-.192.0534-.3951.052-.5863-.0041-2.3798-.6475-4.7637-1.291-7.1456-1.9345-.1001-.0265-.1961-.0633-.3146-.1021l-.5004-5.5277c-.3922-.0879-6.7861-.0715-7.0353.0143 0 .1082-.0082.2247 0 .337.0286.3269.0654.6496.094.9744.1144 1.3135.2247 2.627.3411 3.9426l.4903 5.4174c.0286.2859.0265.2859.2941.3676l.1532.0409c4.5002 1.2522 9.0025 2.5024 13.4986 3.7607.3064.0858.5863.0899.8947.0041 4.4675-1.2461 8.9371-2.4819 13.4066-3.7199.5557-.1532.5455-.1552.5924-.7394.0879-1.0725.1839-2.1429.2799-3.2153.096-1.0623.1941-2.1204.288-3.1827.094-1.0601.1839-2.1224.2799-3.1826.096-1.0622.1961-2.1224.2901-3.1826l.2778-3.1847c.0939-1.0601.1961-2.1203.29-3.1805l.3391-3.8465c.1185-1.3013.2411-2.6046.3555-3.9078.1164-1.3013.2247-2.6046.3411-3.9078.1144-1.2931.237-2.5841.3534-3.8752.0123-.1348.0021-.2696.0021-.4575m10.3976-11.5825c.0061.0552.0184.0981.0143.1369l-.2758 3.0233-.2144 2.4309-.2942 3.2745-.2717 3.058-.3003 3.3399-.2737 3.1193-.2921 3.248-.2104 2.3614-.2983 3.3093-.2737 3.0887-.2962 3.3092-.2717 3.056-.3003 3.3399c-.0939 1.05-.1838 2.102-.2757 3.152l-.2922 3.2132-.2716 3.0887-.2962 3.2766-.2738 3.0886-.0694.8192c-.0205.2574-.0205.2614-.2901.335l-3.3195.9274c-6.2978 1.7466-12.5977 3.4911-18.8935 5.2438-.2713.0776-.5592.0755-.8293-.0062-7.3437-2.0427-14.6875-4.0773-22.03323-6.116-.04903-.0122-.1001-.0368-.15117-.0449-.16137-.0245-.2247-.1124-.239-.2778-.05924-.7457-.12665-1.4913-.19406-2.2389-.09397-1.0622-.19406-2.1204-.28803-3.1826l-.21245-2.3941-.29824-3.3093-.20836-2.3635-.2962-3.3093-.27782-3.1499c-.09601-1.0827-.1961-2.1653-.29415-3.2459l-.21041-2.3962-.29211-3.2766-.27578-3.1193-.2962-3.2786-.27577-3.1193c-.09601-1.0949-.1961-2.1878-.29416-3.2786l-.27373-3.0907-.296195-3.3093-.277816-3.1499-.288029-3.2133-.20019-2.2368c0-.0409.0102138-.0817.0142993-.1226.2349177-.0653 55.4201007-.0817 55.8286007-.0143" fill="#fff" fill-rule="evenodd"/></g></svg>