<svg fill="none" height="64" viewBox="0 0 74 64" width="74" xmlns="http://www.w3.org/2000/svg" xmlns:xlink="http://www.w3.org/1999/xlink"><mask id="a" height="51" maskUnits="userSpaceOnUse" width="74" x="0" y="0"><path d="m0 0h73.6658v50.0956h-73.6658z" fill="#fff"/></mask><mask id="b" height="9" maskUnits="userSpaceOnUse" width="9" x="18" y="55"><path d="m18.8174 55.9978h7.6984v7.7686h-7.6984z" fill="#fff"/></mask><mask id="c" height="9" maskUnits="userSpaceOnUse" width="9" x="32" y="55"><path d="m32.4592 55.9923h7.6861v7.7741h-7.6861z" fill="#fff"/></mask><g mask="url(#a)"><path clip-rule="evenodd" d="m54.971 16.0948c.055.0881.0839.1445.1197.1954l6.6854 9.4218c.1308.1844.1321.1858.3551.1238l8.2009-2.2312c.0592-.0165.1142-.0426.194-.0743-.0757-.1005-.1376-.1817-.2009-.2615-2.3522-2.9383-4.705-5.8761-7.0584-8.8134-.2725-.34-.1762-.2822-.5506-.1941-2.2216.5203-4.4404 1.0461-6.6606 1.5706l-1.0846.2615m-8.7363 31.4888 22.6356-7.9241-7.8898-11.1244c-.479.0757-22.3066 6.0398-22.4855 6.1472zm-11.2786-14.3562c-.0743-.1308-.1197-.2148-.1693-.296l-3.854-6.428-13.0583-21.77527c-.424-.70612-.8507-1.41223-1.2691-2.12248-.0964-.16104-.1844-.24913-.3964-.20234-.296.0647-.6015.08259-.903.12251l-5.90077.79558-5.90219.7887c-.18031.02478-.36062.05506-.58361.08947l17.52627 32.97403zm2.3028-.6277 22.2846-6.0563c-.0633-.1033-.1101-.1831-.1624-.2574l-3.2525-4.5836-3.8499-5.4301c-.0592-.0839-.1212-.1679-.1776-.256-.4322-.6703-.128-1.5141.6373-1.7343.4391-.1252.8864-.2188 1.331-.3235l8.9276-2.11c.0551-.0138.1101-.0234.1652-.0358.5093-.1198.9291.022 1.258.4349l2.2079 2.757c2.2325 2.7873 4.4651 5.5746 6.695 8.3661.1101.1348.2106.2876.2711.4487.2244.6015-.1018 1.2525-.7295 1.459-.3496.1129-.7088.1996-1.064.2973l-8.1815 2.2202-.2877.084c.0647.1005.1101.1789.161.2532l3.2402 4.5657 4.8093 6.7804c.1266.1789.234.3633.2601.5863.0688.5974-.2175 1.0558-.8038 1.2622-1.9408.6827-3.8844 1.3599-5.8265 2.0399-6.2862 2.2023-12.5738 4.4046-18.8614 6.6028-.1789.0633-.3716.1156-.5588.1239-.4474.022-.7819-.1913-1.0117-.5712-.3689-.6098-.735-1.221-1.1012-1.8321-2.4211-4.0385-4.8423-8.0783-7.2648-12.1154-.212-.3524-.1322-.3359-.5603-.2203-5.1754 1.4081-10.3508 2.8162-15.5262 4.2271-.2296.0745-.4752.085-.7103.0303-.1556-.0403-.3007-.1133-.4258-.2142s-.2273-.2273-.2995-.3708c-.1914-.351-.3786-.7048-.5658-1.0599l-10.74585-20.2144-7.273121-13.68184c-.052304-.0991-.107362-.19821-.154161-.29869-.320711-.69235.067445-1.47279.81623-1.60768.550572-.0991 1.109412-.15967 1.665492-.23399l3.78522-.50929 3.40119-.455601 3.7136-.498272c1.1191-.151408 2.2368-.30557 3.3558-.4542254.5547-.0729514.9566.1569144 1.2416.6331634.9249 1.555375 1.8582 3.106625 2.79 4.657875l16.2104 27.03335z" fill="#fff" fill-rule="evenodd"/></g><path clip-rule="evenodd" d="m56.1024 59.1058c-.1693-1.3324-1.4177-2.1899-2.7391-2.1844-.3498-.0063-.6973.0577-1.022.1882-.3246.1305-.6197.3249-.8678.5716-.3965.3895-.6318.8685-.7736 1.4246zm-5.5222.8809c.0275.2367.0385.435.0757.629.2257 1.1824 1.1465 2.1019 2.3096 2.2299 1.1425.1239 2.1184-.234 2.8245-1.1838.128-.172.245-.3523.3799-.545.267.1404.5189.2753.7777.4101-.0276.0744-.0413.1281-.0688.1749-.6745 1.225-1.6779 1.9476-3.097 2.0467-.6883.0482-1.36-.0234-1.9959-.3028-.8506-.3703-1.4218-1.0254-1.8141-1.8417-.8562-1.7811-.245-3.9806 1.3998-5.0515.7061-.4598 1.4948-.596 2.3207-.5437.6332.0413 1.2305.2065 1.7646.5616.9277.6166 1.4948 1.4728 1.682 2.5753.0427.2601.0798.5203.044.8052-.1156.0055-.2257.0138-.3358.0138-1.9601.0027-3.9229.0014-5.8829.0027-.1101 0-.2202.011-.384.0193z" fill="#fff" fill-rule="evenodd"/><g mask="url(#b)"><path clip-rule="evenodd" d="m25.6266 59.915c-.0234-.2064-.0317-.4143-.0688-.6194-.0769-.44-.2553-.8561-.5211-1.2151-.2659-.3589-.6118-.6509-1.0103-.8527-.3986-.2018-.8387-.3079-1.2854-.3097s-.8876.1006-1.2878.2991c-1.7302.8328-2.1927 3.086-.9731 4.5781.5065.6194 1.1576.9855 1.9518 1.0598 1.6035.1514 3.2016-1.0144 3.1933-2.9401m-.0619 3.6421v-1.1645c-.1239.0166-.1625.1033-.2175.1625-.5121.5299-1.1053.9249-1.8293 1.097-2.4418.585-4.3441-1.1865-4.6386-3.0667-.1638-1.0626-.0055-2.0606.6387-2.9484.7831-1.0736 1.8306-1.6517 3.1754-1.6379 1.0516.011 1.9256.4239 2.6139 1.2209l.1954.2271.0496-.0193.0137-1.2209h.9264c.0082.0964.022.1831.022.2684v6.823c0 .0482.0124.1033-.0069.1432-.0248.0495-.0715.1225-.1128.1239-.2698.0165-.541.0275-.8287-.0083" fill="#fff" fill-rule="evenodd"/></g><g mask="url(#c)"><path clip-rule="evenodd" d="m39.2684 59.9054c-.0206-.1982-.0316-.3991-.066-.596-.0755-.4421-.2535-.8604-.5196-1.2214s-.6131-.6548-1.013-.8577c-.4-.2029-.8419-.3094-1.2905-.311-.4485-.0015-.8911.1019-1.2925.3021-.6875.3388-1.2167.9311-1.4763 1.6523-.2595.7211-.2292 1.5149.0847 2.2141.4625 1.0282 1.2567 1.66 2.3895 1.7646 1.7729.1638 3.181-1.1645 3.1837-2.947zm-.0646-2.4817v-1.2182c.3152-.0275.6056-.0247.8891-.0041.0633.1996.0757 7.0763.0138 7.3585-.2835.0303-.5754.0275-.8974-.0028v-1.1521l-.0551-.0234-.1734.179c-.4859.5093-1.0516.8947-1.7357 1.0722-2.4542.6373-4.3826-1.1025-4.7143-2.9882-.3675-2.0798.724-3.5471 2.0288-4.2395 1.2664-.6703 3.2223-.6207 4.4253.8603.0495.0606.106.1156.1583.1734z" fill="#fff" fill-rule="evenodd"/></g><path clip-rule="evenodd" d="m41.5768 56.1905h.9044c.1115 0 .1472.0826.1844.1638l.4735 1.0241 1.788 3.8843c.033.0715.0688.1417.1239.2519.0495-.0868.0867-.1418.1142-.201l2.2078-4.8533c.0276-.0578.0468-.1225.084-.1721.0303-.0413.0826-.0908.1266-.0922.2932-.0083.5864-.0041.9223-.0041-.0482.1266-.0771.2147-.1157.2986l-2.4982 5.4604-.6401 1.3971c-.0234.0509-.044.1046-.0743.1514-.0661.095-.172.0991-.2381.0055-.0358-.0509-.0592-.1129-.0853-.1707l-3.1659-6.8726c-.033-.0715-.0591-.1459-.1101-.2711m-9.5814.0771-.4735.7708c-.0468-.0042-.0784 0-.1074-.0083-.6194-.1707-1.1121-.0124-1.5113.4928-.2917.3852-.4786.8396-.5423 1.3186-.1101.6827-.1074 1.3723-.1087 2.0605v2.3304l-.0014.1927c-.0014.0963-.0496.1486-.1473.1486h-.6965c-.0963 0-.1473-.0509-.1473-.1486l-.0027-.1927v-6.7033c0-.1005.011-.2023.0165-.3221h.9718l.0082.4625v.468c.117-.0069.1418-.095.1859-.1514.2243-.2863.4845-.5355.7969-.7227.5231-.3152 1.0681-.362 1.6242-.0826.0358.0179.0661.0427.1349.0868m-14.7967 7.291c-.3276.033-.625.0192-.9168.011-.0578-.1982-.0784-9.8251-.022-10.2063.2891-.0344.5891-.0152.9154-.011.0082.1238.022.2312.022.3386v9.8677zm42.5719-10.1981v10.1967c-.3116.033-.6259.0321-.9373-.0028v-10.1925c.3111-.0275.6097-.022.936-.0014" fill="#fff" fill-rule="evenodd"/></svg>