<svg fill="none" height="35" viewBox="0 0 72 35" width="72" xmlns="http://www.w3.org/2000/svg" xmlns:xlink="http://www.w3.org/1999/xlink"><mask id="a" height="28" maskUnits="userSpaceOnUse" width="27" x="0" y="7"><path d="m0 7.20312h26.0404v27.51668h-26.0404z" fill="#fff"/></mask><mask id="b" height="28" maskUnits="userSpaceOnUse" width="27" x="45" y="7"><path d="m45.9452 7.20312h26.0548v27.54958h-26.0548z" fill="#fff"/></mask><g mask="url(#a)"><path clip-rule="evenodd" d="m8.21202 23.1564c2.09108-.0945 4.11428-.0884 6.11478-.3022 2.0972-.2262 3.6866-1.3241 4.5646-3.3247.5251-1.1886.8335-2.4614.9108-3.7585.1398-2.3748-.588-3.4399-2.6297-3.9539-.2427-.0617-.4935-.1234-.7423-.1295-1.8998-.0514-3.7996-.0926-5.6995-.1131-.111 0-.294.1727-.3269.2961-.1151.4317-.1748.8758-.2611 1.3159l-1.93068 9.972m-2.88675-15.95733h.67029c3.72975.00617 7.45534-.00411 11.18304.01234 1.4187.00617 2.8128.19327 4.1492.69496 2.8786 1.07944 4.5358 3.17663 4.69 6.23813.2467 4.8668-1.6038 8.7796-5.7016 11.5059-1.4729.9702-3.1809 1.5236-4.9428 1.6017-2.4879.1337-4.986.1378-7.48007.181-.35159.0061-.53458.0411-.61066.4729-.37009 2.0951-.7957 4.18-1.20281 6.271-.0329.1727-.07402.3455-.1172.5428h-5.96266l5.32322-27.51662" fill="#fff" fill-rule="evenodd"/></g><g mask="url(#b)"><path clip-rule="evenodd" d="m54.1819 23.0781c2.1445-.0864 4.2684.1665 6.3739-.2591 1.4413-.294 2.7263-.8636 3.592-2.1137 1.248-1.8052 1.7168-3.8593 1.5893-6.0202-.0946-1.5976-.8656-2.418-2.4138-2.8086-.6025-.157-1.2202-.2487-1.8423-.2735-1.5585-.0473-3.1191-.0247-4.6776-.0493-.3249-.0062-.4277.111-.4832.4174-.3331 1.7846-.6888 3.5652-1.0342 5.3499zm-.8492 4.3609c-.4359 2.2658-.8533 4.4741-1.2912 6.6782-.148.7402.0082.6271-.734.6292-1.6058.0082-3.2096.0041-4.8154.0041h-.5469l5.3253-27.5249c.1357-.00617.2673-.02056.3968-.02056 3.8181 0 7.6363-.00823 11.4524.00617 1.5544.00616 3.0841.22 4.5234.83682 2.5557 1.09384 4.0361 3.03277 4.2972 5.82077.4627 4.9079-1.8422 9.7151-6.3574 12.1762-1.612.88-3.374 1.2295-5.1793 1.3015-2.165.0843-4.3363.0658-6.5034.0925z" fill="#fff" fill-rule="evenodd"/></g><path clip-rule="evenodd" d="m25.0226 27.7987.9499-4.9264 2.8559-14.6825c.5099-2.62357 1.0178-5.2492 1.54-7.870717.0247-.119253.1809-.304301.2776-.304301 1.908-.01850486 3.8181-.01439268 5.7755-.01439268l-1.4331 7.39576068h.5058c1.7909 0 3.5817-.01851 5.3726.00616 1.6737.02262 3.335.18094 4.9058.82244 2.1486.87384 3.0842 2.56395 2.8436 5.03945-.1809 1.8485-.5901 3.6763-.9335 5.5042-.5469 2.8929-1.1246 5.7797-1.7004 8.6664-.0267.1337-.1829.3475-.2796.3495-1.9389.0206-3.8778.0144-5.8701.0144l.5921-3.08c.6313-3.3041 1.2666-6.6083 1.8916-9.9124.0473-.2488.0514-.5099.0473-.7649-.0144-1.1308-.44-1.7065-1.5441-1.9533-.602-.1251-1.215-.1898-1.8299-.1932-1.4907-.0268-2.9813 0-4.47-.0144-.3207-.0041-.4256.0884-.4872.4112-.9705 5.0436-1.9595 10.0851-2.9403 15.1267-.037.1953-.0308.3844-.3207.3844-1.8937-.0082-3.7894-.0041-5.7509-.0041" fill="#fff" fill-rule="evenodd"/></svg>