<svg fill="none" height="56" viewBox="0 0 132 56" width="132" xmlns="http://www.w3.org/2000/svg" xmlns:xlink="http://www.w3.org/1999/xlink"><mask id="a" height="18" maskUnits="userSpaceOnUse" width="25" x="0" y="38"><path d="m0 38.3946h24.9506v17.0641h-24.9506z" fill="#fff"/></mask><mask id="b" height="35" maskUnits="userSpaceOnUse" width="35" x="48" y="0"><path d="m48.693 0h34.1265v34.1281h-34.1249z" fill="#fff"/></mask><path clip-rule="evenodd" d="m59.4186 53.6389h-.2668c-1.3655 0-1.5544-.3414-1.5544-2.0864v-8.2279h1.8212c3.9425 0 4.6633 2.8818 4.6633 5.119 0 2.3135-.7208 5.1953-4.6633 5.1953zm-16.0018-5.2715v-5.0428h1.5544c1.7053 0 2.4643 1.1749 2.4643 2.5405 0 1.3274-.759 2.5023-2.4643 2.5023h-1.556zm15.8875-6.1797h-6.7879v.7193c2.1229 0 2.4643.4557 2.4643 3.1486v4.8539c0 2.6913-.3414 3.1851-2.4643 3.1851-1.6306-.2286-2.731-1.1003-4.2473-2.7691l-1.7434-1.8958c2.3499-.4176 3.6027-1.8959 3.6027-3.5646 0-2.0848-1.7831-3.6774-5.1191-3.6774h-6.6735v.7193c2.1229 0 2.4643.4557 2.4643 3.1486v4.8539c0 2.6913-.3414 3.1851-2.4643 3.1851v.7193h7.5452v-.7193c-2.1229 0-2.4642-.4938-2.4642-3.1851v-1.3655h.6446l4.2077 5.2699h11.0352c5.4223 0 7.7722-2.8819 7.7722-6.3322 0-3.4502-2.3499-6.294-7.7722-6.294z" fill="#fff" fill-rule="evenodd"/><g mask="url(#a)"><path clip-rule="evenodd" d="m17.2149 49.7712 2.6167-7.7358c.759-2.2372.4176-2.8818-2.0102-2.8818v-.759h7.1292v.759c-2.388 0-2.958.5684-3.9059 3.3375l-4.322 12.9676h-.4922l-3.8711-11.8688-3.94249 11.8688h-.49222l-4.20925-12.9676c-.9098-2.7691-1.51634-3.3375-3.71544-3.3375v-.759h8.4185v.759c-2.23879 0-2.84533.5303-2.04826 2.8818l2.54048 7.7358 3.82978-11.3766h.7208z" fill="#fff" fill-rule="evenodd"/></g><path clip-rule="evenodd" d="m30.1063 42.8706c-3.4884 0-4.6999 3.147-4.6999 5.6113 0 2.5023 1.2115 5.6112 4.6999 5.6112 3.5281 0 4.7411-3.1089 4.7411-5.6112 0-2.4643-1.213-5.6113-4.7411-5.6113zm0 12.4372c-4.1696 0-7.5834-3.0724-7.5834-6.8275 0-3.7155 3.4138-6.7863 7.5834-6.7863 4.1711 0 7.5849 3.0724 7.5849 6.7879 0 3.7535-3.4138 6.8259-7.5849 6.8259zm45.5015-15.5477h-2.1594v6.5989h2.1594c2.1244 0 3.1105-1.4798 3.1105-3.2613 0-1.8197-.9861-3.3376-3.1105-3.3376zm.8351 14.2965v.7574h-8.6836v-.7574c2.5405 0 2.9962-.6446 2.9962-4.4379v-6.0653c0-3.7933-.4557-4.3982-2.9962-4.3982v-.7606h7.8485c3.9059 0 6.0685 2.0102 6.0685 4.7031 0 2.6166-2.1626 4.6633-6.0685 4.6633h-2.1594v1.8577c0 3.7933.4541 4.4379 2.9945 4.4379zm11.1861-5.689v-5.0429h1.5544c1.7069 0 2.4643 1.175 2.4643 2.5405 0 1.3274-.7574 2.5024-2.4643 2.5024zm20.097 2.8818-.191.6828c-.341 1.2511-.757 1.7068-3.45 1.7068h-.53c-1.972 0-2.314-.4557-2.314-3.147v-1.745c2.958 0 3.185.2652 3.185 2.2388h.721v-5.6525h-.721c0 1.9736-.227 2.2388-3.185 2.2388v-4.2474h2.085c2.693 0 3.11.4557 3.452 1.7069l.19.7193h.605l-.265-3.5631h-11.1478v.7193c2.1229 0 2.4643.4557 2.4643 3.1486v4.8539c0 2.4611-.2906 3.0819-1.9641 3.1708-1.591-.2429-2.6834-1.1114-4.1775-2.7548l-1.745-1.8958c2.3499-.4176 3.6027-1.8958 3.6027-3.5646 0-2.0848-1.7815-3.6774-5.1191-3.6774h-6.6735v.7193c2.1229 0 2.4643.4557 2.4643 3.1486v4.8539c0 2.6913-.3414 3.1851-2.4643 3.1851v.7193h7.5452v-.7193c-2.1228 0-2.4642-.4938-2.4642-3.1851v-1.3655h.6446l4.2077 5.2715h15.5857l.227-3.5662zm7.697 4.0584c-1.518 0-2.845-.7971-3.413-1.2893-.191.1906-.531.7574-.607 1.2893h-.721v-5.2334h.759c.303 2.5024 2.048 3.9822 4.286 3.9822 1.213 0 2.199-.6827 2.199-1.8212 0-.9844-.874-1.7434-2.428-2.4642l-2.161-1.0242c-1.516-.7208-2.655-1.972-2.655-3.6408 0-1.8196 1.707-3.3741 4.059-3.3741 1.251 0 2.311.4557 2.956.9861.191-.1525.38-.57.494-1.0242h.719v4.4745h-.795c-.265-1.7816-1.252-3.2614-3.262-3.2614-1.06 0-2.048.6066-2.048 1.5561 0 .9844.797 1.5163 2.618 2.3499l2.085 1.0241c1.82.8733 2.541 2.2753 2.541 3.4138 0 2.388-2.087 4.0568-4.626 4.0568m11.466 0c-1.518 0-2.845-.7971-3.414-1.2893-.19.1906-.53.7574-.606 1.2893h-.721v-5.2334h.759c.303 2.5024 2.048 3.9822 4.285 3.9822 1.213 0 2.199-.6827 2.199-1.8212 0-.9844-.873-1.7434-2.428-2.4642l-2.159-1.0242c-1.518-.7208-2.656-1.972-2.656-3.6408 0-1.8196 1.707-3.3741 4.058-3.3741 1.251 0 2.312.4557 2.957.9861.19-.1525.381-.57.492-1.0242h.722v4.4745h-.797c-.265-1.7816-1.251-3.2614-3.261-3.2614-1.061 0-2.048.6066-2.048 1.5561 0 .9844.797 1.5163 2.618 2.3499l2.085 1.0241c1.819.8733 2.54 2.2753 2.54 3.4138 0 2.388-2.086 4.0568-4.625 4.0568" fill="#fff" fill-rule="evenodd"/><g mask="url(#b)"><path clip-rule="evenodd" d="m65.757 0c-9.4251 0-17.064 7.6373-17.064 17.0641 0 9.4235 7.6389 17.064 17.064 17.064 9.4236 0 17.0625-7.6405 17.0625-17.064 0-9.4268-7.6389-17.0641-17.0625-17.0641zm0 1.02413c3.1958-.00657 6.3198.9477 8.9663 2.73895 1.7083 1.15443 3.1797 2.62528 4.3347 4.3331 1.7914 2.64712 2.7457 5.77162 2.739 8.96792.0068 3.1962-.9475 6.3208-2.739 8.9678-1.1551 1.7078-2.6265 3.1786-4.3347 4.3331-2.647 1.7916-5.7715 2.7459-8.9678 2.739-3.1958.0066-6.3197-.9477-8.9663-2.739-1.7083-1.155-3.1797-2.6264-4.3347-4.3347-1.7915-2.647-2.7458-5.7715-2.739-8.9678-.006-3.1952.9482-6.3185 2.739-8.96474 1.1549-1.70839 2.6263-3.17979 4.3347-4.33468 2.647-1.79155 5.7715-2.74584 8.9678-2.73895" fill="#fff" fill-rule="evenodd"/></g><path clip-rule="evenodd" d="m78.2355 10.2413c.0604.4541.0953.94.0953 1.4624 0 1.4433-.2699 3.0644-1.0813 5.0937l-4.3426 12.5578c2.1515-1.2503 3.937-3.0437 5.1778-5.2007s1.8934-4.602 1.8927-7.0904c0-2.4722-.632-4.7967-1.7419-6.8228zm-12.2292 8.066-4.2664 12.3976c2.8646.8446 5.9224.7651 8.7393-.2271-.0394-.0621-.0734-.1274-.1017-.1953zm9.3506-1.9609c0-1.7577-.632-2.9739-1.1718-3.9218-.7209-1.1718-1.3973-2.1626-1.3973-3.33441 0-1.30676.9908-2.5246 2.3881-2.5246.0635 0 .1222.00794.1842.0127-2.6188-2.40606-6.0468-3.73915-9.603-3.7345-2.3568-.0011-4.6768.58422-6.751 1.70321-2.0741 1.11899-3.8373 2.73649-5.1305 4.70673.3334.00953.6494.01588.9161.01588 1.4862 0 3.7901-.17942 3.7901-.17942.7653-.04446.8574 1.07971.0905 1.17181 0 0-.7717.0905-1.6275.1349l5.1778 15.4017 3.1121-9.3315-2.215-6.0702c-.7669-.0444-1.4925-.1349-1.4925-.1349-.7653-.0461-.6748-1.21627.0905-1.17181 0 0 2.3499.181 3.7472.181 1.4862 0 3.7885-.181 3.7885-.181.7669-.04446.8574 1.07971.0905 1.17181 0 0-.7717.0905-1.6275.1349l5.1397 15.2858 1.4671-4.6491c.651-2.0324 1.0321-3.4709 1.0321-4.6872zm-23.8202.7177c-.0004 2.6706.7511 5.2873 2.1686 7.5506s3.4437 4.0817 5.8466 5.247l-6.783-18.5851c-.8136 1.8209-1.2335 3.7931-1.2322 5.7875z" fill="#fff" fill-rule="evenodd"/></svg>